<svg xmlns="http://www.w3.org/2000/svg" width="760" height="390" viewBox="0 0 760 390" role="img" aria-labelledby="distribution-title distribution-desc"><title id="distribution-title">Historical-snapshot-derived regret distribution</title><desc id="distribution-desc">Share of requests within exact, 1, 10, and 100 basis points of the best observed fixed-mode output. Higher is better.</desc><rect width="760" height="390" fill="white"/><line x1="75" y1="325" x2="690" y2="325" stroke="#333"/><line x1="75" y1="75" x2="75" y2="325" stroke="#333"/><text x="18" y="275" font-size="14" transform="rotate(-90 18 275)">Share of quoted requests (higher is better)</text><text x="92" y="355" font-size="12">exact</text><text x="252" y="355" font-size="12">1 bps</text><text x="412" y="355" font-size="12">10 bps</text><text x="572" y="355" font-size="12">100 bps</text><g data-series="best-single" fill="none" stroke="#1b4f9c"><polyline points="110,290.6 270,229.0 430,162.2 590,101.8"/><circle data-threshold="exact" data-rate-ppm="106060" cx="110" cy="290.6" r="3" fill="#1b4f9c"/><circle data-threshold="1 bps" data-rate-ppm="373737" cx="270" cy="229.0" r="3" fill="#1b4f9c"/><circle data-threshold="10 bps" data-rate-ppm="664141" cx="430" cy="162.2" r="3" fill="#1b4f9c"/><circle data-threshold="100 bps" data-rate-ppm="926767" cx="590" cy="101.8" r="3" fill="#1b4f9c"/><text x="90" y="42" fill="#1b4f9c" stroke="none" font-size="11">best-single</text></g><g data-series="greedy-split/fast" fill="none" stroke="#2d7d46"><polyline points="110,288.9 270,193.0 430,123.3 590,92.0"/><circle data-threshold="exact" data-rate-ppm="113636" cx="110" cy="288.9" r="3" fill="#2d7d46"/><circle data-threshold="1 bps" data-rate-ppm="530303" cx="270" cy="193.0" r="3" fill="#2d7d46"/><circle data-threshold="10 bps" data-rate-ppm="833333" cx="430" cy="123.3" r="3" fill="#2d7d46"/><circle data-threshold="100 bps" data-rate-ppm="969696" cx="590" cy="92.0" r="3" fill="#2d7d46"/><text x="255" y="42" fill="#2d7d46" stroke="none" font-size="11">greedy-split/fast</text></g><g data-series="greedy-split/balanced" fill="none" stroke="#c16a16"><polyline points="110,284.8 270,171.5 430,111.7 590,92.0"/><circle data-threshold="exact" data-rate-ppm="131313" cx="110" cy="284.8" r="3" fill="#c16a16"/><circle data-threshold="1 bps" data-rate-ppm="623737" cx="270" cy="171.5" r="3" fill="#c16a16"/><circle data-threshold="10 bps" data-rate-ppm="883838" cx="430" cy="111.7" r="3" fill="#c16a16"/><circle data-threshold="100 bps" data-rate-ppm="969696" cx="590" cy="92.0" r="3" fill="#c16a16"/><text x="420" y="42" fill="#c16a16" stroke="none" font-size="11">greedy-split/balanced</text></g><g data-series="greedy-split/thorough" fill="none" stroke="#8d3d9c"><polyline points="110,256.9 270,126.2 430,95.5 590,85.0"/><circle data-threshold="exact" data-rate-ppm="252525" cx="110" cy="256.9" r="3" fill="#8d3d9c"/><circle data-threshold="1 bps" data-rate-ppm="820707" cx="270" cy="126.2" r="3" fill="#8d3d9c"/><circle data-threshold="10 bps" data-rate-ppm="954545" cx="430" cy="95.5" r="3" fill="#8d3d9c"/><circle data-threshold="100 bps" data-rate-ppm="1000000" cx="590" cy="85.0" r="3" fill="#8d3d9c"/><text x="585" y="42" fill="#8d3d9c" stroke="none" font-size="11">greedy-split/thorough</text></g><g data-series="numerical-split/fast" fill="none" stroke="#16858d"><polyline points="110,288.9 270,190.7 430,122.2 590,92.0"/><circle data-threshold="exact" data-rate-ppm="113636" cx="110" cy="288.9" r="3" fill="#16858d"/><circle data-threshold="1 bps" data-rate-ppm="540404" cx="270" cy="190.7" r="3" fill="#16858d"/><circle data-threshold="10 bps" data-rate-ppm="838383" cx="430" cy="122.2" r="3" fill="#16858d"/><circle data-threshold="100 bps" data-rate-ppm="969696" cx="590" cy="92.0" r="3" fill="#16858d"/><text x="90" y="60" fill="#16858d" stroke="none" font-size="11">numerical-split/fast</text></g><g data-series="numerical-split/balanced" fill="none" stroke="#b33b53"><polyline points="110,182.0 270,125.1 430,100.1 590,90.8"/><circle data-threshold="exact" data-rate-ppm="578282" cx="110" cy="182.0" r="3" fill="#b33b53"/><circle data-threshold="1 bps" data-rate-ppm="825757" cx="270" cy="125.1" r="3" fill="#b33b53"/><circle data-threshold="10 bps" data-rate-ppm="934343" cx="430" cy="100.1" r="3" fill="#b33b53"/><circle data-threshold="100 bps" data-rate-ppm="974747" cx="590" cy="90.8" r="3" fill="#b33b53"/><text x="255" y="60" fill="#b33b53" stroke="none" font-size="11">numerical-split/balanced</text></g><g data-series="numerical-split/thorough" fill="none" stroke="#666"><polyline points="110,219.2 270,110.6 430,93.1 590,85.0"/><circle data-threshold="exact" data-rate-ppm="416666" cx="110" cy="219.2" r="3" fill="#666"/><circle data-threshold="1 bps" data-rate-ppm="888888" cx="270" cy="110.6" r="3" fill="#666"/><circle data-threshold="10 bps" data-rate-ppm="964646" cx="430" cy="93.1" r="3" fill="#666"/><circle data-threshold="100 bps" data-rate-ppm="1000000" cx="590" cy="85.0" r="3" fill="#666"/><text x="420" y="60" fill="#666" stroke="none" font-size="11">numerical-split/thorough</text></g><g data-series="large-budget-comparison" fill="none" stroke="#111"><polyline points="110,213.4 270,101.3 430,88.5 590,85.0"/><circle data-threshold="exact" data-rate-ppm="441919" cx="110" cy="213.4" r="3" fill="#111"/><circle data-threshold="1 bps" data-rate-ppm="929292" cx="270" cy="101.3" r="3" fill="#111"/><circle data-threshold="10 bps" data-rate-ppm="984848" cx="430" cy="88.5" r="3" fill="#111"/><circle data-threshold="100 bps" data-rate-ppm="1000000" cx="590" cy="85.0" r="3" fill="#111"/><text x="585" y="60" fill="#111" stroke="none" font-size="11">large-budget-comparison</text></g></svg>
